<?xml version="1.0" standalone="no"?>
<!DOCTYPE svg PUBLIC "-//W3C//DTD SVG 20010904//EN"
 "http://www.w3.org/TR/2001/REC-SVG-20010904/DTD/svg10.dtd">
<svg version="1.0" xmlns="http://www.w3.org/2000/svg"
 width="512.000000pt" height="512.000000pt" viewBox="0 0 512.000000 512.000000"
 preserveAspectRatio="xMidYMid meet">
<metadata>
Created by potrace 1.14, written by Peter Selinger 2001-2017
</metadata>
<g transform="translate(0.000000,512.000000) scale(0.100000,-0.100000)"
fill="#000000" stroke="none">
<path d="M0 2560 l0 -2560 2560 0 2560 0 0 2560 0 2560 -2560 0 -2560 0 0
-2560z m2735 1969 c60 -6 137 -19 170 -30 33 -10 69 -19 81 -19 11 0 23 -3 26
-6 4 -3 48 -20 100 -38 112 -39 319 -140 344 -167 9 -10 21 -19 26 -19 17 0
131 -83 218 -159 93 -81 158 -146 198 -201 15 -19 45 -57 68 -85 85 -102 172
-270 200 -385 10 -41 24 -83 32 -92 9 -10 20 -63 27 -125 7 -60 18 -128 23
-153 43 -189 4 -591 -80 -830 -62 -175 -147 -335 -256 -480 -19 -25 -43 -58
-55 -74 -65 -88 -269 -272 -372 -336 -38 -24 -81 -52 -94 -62 -45 -34 -276
-139 -351 -160 -41 -11 -82 -24 -91 -29 -52 -27 -379 -71 -508 -69 -80 2 -341
34 -401 49 -135 35 -190 52 -300 96 -115 46 -140 58 -140 67 0 4 -5 8 -10 8
-11 0 -170 89 -180 100 -3 3 -54 43 -113 89 -114 89 -259 234 -329 329 -23 31
-46 62 -50 67 -23 28 -60 86 -84 133 -16 28 -32 52 -36 52 -4 0 -8 6 -8 13 0
8 -20 54 -44 103 -158 320 -174 798 -39 1188 77 226 196 427 362 610 49 54
228 212 282 249 30 20 74 51 99 69 75 53 308 163 435 206 106 36 324 85 425
95 81 9 324 6 425 -4z"/>
<path d="M2250 3401 c-74 -17 -188 -68 -252 -111 -178 -122 -298 -342 -301
-550 -4 -243 114 -419 368 -551 96 -49 142 -60 277 -66 155 -7 226 5 328 55
136 67 299 255 354 409 54 149 66 244 45 359 -17 95 -55 165 -139 259 -76 85
-211 165 -330 196 -95 24 -246 24 -350 0z"/>
</g>
</svg>
